<svg width="23" height="21" viewBox="0 0 23 21" fill="none" xmlns="http://www.w3.org/2000/svg">
<g clip-path="url(#clip0)">
<path d="M23 2.45754C22.1447 2.85907 21.2333 3.12523 20.2831 3.25446C21.2606 2.62984 22.0067 1.64831 22.3574 0.465228C21.4461 1.04677 20.4398 1.45754 19.3674 1.68677C18.5021 0.700613 17.2687 0.0898438 15.9232 0.0898438C13.3127 0.0898438 11.2111 2.35754 11.2111 5.13754C11.2111 5.53754 11.2427 5.92215 11.3203 6.2883C7.40025 6.08369 3.93156 4.07292 1.60137 1.00984C1.19456 1.76523 0.955937 2.62984 0.955937 3.56061C0.955937 5.3083 1.79687 6.85753 3.05037 7.75446C2.29281 7.73907 1.54962 7.50369 0.92 7.13292C0.92 7.14831 0.92 7.1683 0.92 7.1883C0.92 9.64061 2.55444 11.6775 4.69775 12.1468C4.31394 12.2591 3.89562 12.3129 3.4615 12.3129C3.15962 12.3129 2.85487 12.2945 2.56881 12.2268C3.17975 14.2252 4.91337 15.6945 6.97475 15.7421C5.3705 17.0852 3.33356 17.8945 1.12844 17.8945C0.74175 17.8945 0.370875 17.876 0 17.8252C2.08869 19.2668 4.56406 20.0898 7.2335 20.0898C15.9102 20.0898 20.654 12.3975 20.654 5.72984C20.654 5.50677 20.6468 5.29138 20.6367 5.07754C21.5726 4.36677 22.3589 3.47907 23 2.45754Z" fill="#3D3D3D"/>
</g>
<defs>
<clipPath id="clip0">
<rect width="23" height="20" fill="white" transform="translate(0 0.0898438)"/>
</clipPath>
</defs>
</svg>
