<svg width="20" height="20" viewBox="0 0 20 20" fill="none" xmlns="http://www.w3.org/2000/svg">
<path d="M11.7578 10C11.7578 10.9708 10.9708 11.7578 10 11.7578C9.02924 11.7578 8.24219 10.9708 8.24219 10C8.24219 9.02924 9.02924 8.24219 10 8.24219C10.9708 8.24219 11.7578 9.02924 11.7578 10Z" fill="#3D3D3D"/>
<path d="M12.9688 4.68701H7.03134C5.73892 4.68701 4.68759 5.73834 4.68759 7.03076V12.9683C4.68759 14.2607 5.73892 15.312 7.03134 15.312H12.9688C14.2613 15.312 15.3126 14.2607 15.3126 12.9683V7.03076C15.3126 5.73834 14.2613 4.68701 12.9688 4.68701ZM10.0001 12.9292C8.38464 12.9292 7.0704 11.615 7.0704 9.99951C7.0704 8.38406 8.38464 7.06982 10.0001 7.06982C11.6155 7.06982 12.9298 8.38406 12.9298 9.99951C12.9298 11.615 11.6155 12.9292 10.0001 12.9292ZM13.3595 7.22607C13.0358 7.22607 12.7735 6.96378 12.7735 6.64014C12.7735 6.3165 13.0358 6.0542 13.3595 6.0542C13.6831 6.0542 13.9454 6.3165 13.9454 6.64014C13.9454 6.96378 13.6831 7.22607 13.3595 7.22607Z" fill="#3D3D3D"/>
<path d="M14.7266 0H5.27344C2.36572 0 0 2.36572 0 5.27344V14.7266C0 17.6343 2.36572 20 5.27344 20H14.7266C17.6343 20 20 17.6343 20 14.7266V5.27344C20 2.36572 17.6343 0 14.7266 0ZM16.4844 12.9688C16.4844 14.9072 14.9072 16.4844 12.9688 16.4844H7.03125C5.09277 16.4844 3.51562 14.9072 3.51562 12.9688V7.03125C3.51562 5.09277 5.09277 3.51562 7.03125 3.51562H12.9688C14.9072 3.51562 16.4844 5.09277 16.4844 7.03125V12.9688Z" fill="#3D3D3D"/>
</svg>
