<svg width="20" height="20" viewBox="0 0 20 20" fill="none" xmlns="http://www.w3.org/2000/svg">
<path d="M6.55878 4.55214V8.07055C6.55878 8.13533 6.61327 8.18777 6.68058 8.18777H7.4926C7.55992 8.18777 7.6144 8.13533 7.6144 8.07055V4.55214L9.35042 0.158873C9.36463 0.122847 9.35959 0.0823669 9.33686 0.0506392C9.31412 0.0189897 9.27669 0 9.23657 0H8.36788C8.31737 0 8.27198 0.0300866 8.25403 0.0755681L7.08659 3.02983L5.91915 0.0755681C5.90121 0.0300866 5.8559 0 5.80539 0H4.93661C4.89658 0 4.85907 0.0189897 4.83633 0.0506392C4.81359 0.0823669 4.80856 0.122847 4.82277 0.158873L6.55878 4.55214Z" fill="#3D3D3D"/>
<path d="M8.50391 4.46395V6.81094C8.50391 7.66555 9.22636 8.36083 10.1144 8.36083C11.0024 8.36083 11.7249 7.66555 11.7249 6.81094V4.46395C11.7249 3.60934 11.0025 2.91406 10.1144 2.91406C9.22636 2.91406 8.50391 3.60934 8.50391 4.46395ZM10.6693 6.81094C10.6693 7.10539 10.4204 7.34492 10.1144 7.34492C9.80841 7.34492 9.55953 7.10539 9.55953 6.81094V4.46395C9.55953 4.16949 9.80841 3.92997 10.1144 3.92997C10.4203 3.92997 10.6693 4.16949 10.6693 4.46395V6.81094Z" fill="#3D3D3D"/>
<path d="M13.7736 8.06121C13.9688 8.06121 14.1551 8.02589 14.3285 7.96439V8.0677C14.3285 8.13248 14.383 8.18492 14.4503 8.18492H15.2623C15.3296 8.18492 15.3841 8.13248 15.3841 8.0677V6.51132V5.9135V3.30472C15.3841 3.23994 15.3296 3.1875 15.2623 3.1875H14.4503C14.383 3.1875 14.3285 3.23994 14.3285 3.30472V5.9135V6.51132C14.3285 6.80578 14.0796 7.0453 13.7736 7.0453C13.4676 7.0453 13.2187 6.80578 13.2187 6.51132V3.30472C13.2187 3.23994 13.1642 3.1875 13.0969 3.1875H12.2849C12.2176 3.1875 12.1631 3.23994 12.1631 3.30472V6.51132C12.163 7.36594 12.8855 8.06121 13.7736 8.06121Z" fill="#3D3D3D"/>
<path d="M11.8185 14.02C11.5126 14.02 11.2637 14.2595 11.2637 14.554V16.5102C11.2637 16.8047 11.5126 17.0442 11.8185 17.0442C12.1245 17.0442 12.3735 16.8047 12.3735 16.5102V14.554C12.3735 14.2595 12.1245 14.02 11.8185 14.02Z" fill="#3D3D3D"/>
<path d="M15.3322 13.978C15.0262 13.978 14.7773 14.2175 14.7773 14.512V14.8689H15.8871V14.512C15.887 14.2175 15.6382 13.978 15.3322 13.978Z" fill="#3D3D3D"/>
<path d="M15.6841 9.05908H4.31588C1.93609 9.05908 0 10.9223 0 13.2125V15.8461C0 18.1363 1.93609 19.9996 4.31588 19.9996H15.6841C18.0639 19.9996 20 18.1363 20 15.8461V13.2125C20 10.9223 18.0639 9.05908 15.6841 9.05908ZM5.83873 17.5576C5.83873 17.6223 5.78425 17.6748 5.71693 17.6748H4.90491C4.8376 17.6748 4.78311 17.6223 4.78311 17.5576V12.0091H3.58538C3.51807 12.0091 3.46358 11.9567 3.46358 11.8919V11.1104C3.46358 11.0457 3.51807 10.9932 3.58538 10.9932H7.03646C7.10378 10.9932 7.15826 11.0457 7.15826 11.1104V11.8919C7.15826 11.9567 7.10378 12.0091 7.03646 12.0091H5.83873V17.5576ZM9.72968 15.643V16.4426V17.9749C9.72968 18.0396 9.67519 18.0921 9.60788 18.0921H8.79586C8.72854 18.0921 8.67406 18.0396 8.67406 17.9749V17.8957C8.50077 17.9572 8.31441 17.9925 8.11912 17.9925C7.2311 17.9925 6.50865 17.4029 6.50865 16.4426V13.8326C6.50865 13.7678 6.56313 13.7154 6.63045 13.7154H7.44247C7.50978 13.7154 7.56427 13.7678 7.56427 13.8326V16.4426C7.56427 16.7371 7.81315 16.9766 8.11912 16.9766C8.42509 16.9766 8.67406 16.7371 8.67406 16.4426V15.643V13.8325C8.67406 13.7677 8.72854 13.7153 8.79586 13.7153H9.60788C9.67519 13.7153 9.72968 13.7677 9.72968 13.8325V15.643ZM13.4284 16.5091C13.4284 17.3638 12.706 18.059 11.8179 18.059C11.6227 18.059 11.4364 18.0237 11.2631 17.9622V18.0479C11.2631 18.1126 11.2086 18.1651 11.1413 18.1651H10.3293C10.262 18.1651 10.2075 18.1126 10.2075 18.0479V16.5091V14.5529V11.2667C10.2075 11.2019 10.262 11.1495 10.3293 11.1495H11.1413C11.2086 11.1495 11.2631 11.2019 11.2631 11.2667V13.0997C11.4364 13.0382 11.6227 13.0029 11.8179 13.0029C12.706 13.0029 13.4284 13.6982 13.4284 14.5528V16.5091ZM16.9423 15.7694C16.9423 15.8342 16.8879 15.8866 16.8205 15.8866H14.7769V16.5091C14.7769 16.8036 15.0258 17.0431 15.3318 17.0431C15.6378 17.0431 15.8867 16.8036 15.8867 16.5091C15.8867 16.4444 15.9412 16.3919 16.0085 16.3919H16.8205C16.8879 16.3919 16.9423 16.4444 16.9423 16.5091C16.9423 17.3638 16.2198 18.059 15.3318 18.059C14.4438 18.059 13.7213 17.3638 13.7213 16.5091V14.5138C13.7213 13.6592 14.4438 12.9639 15.3318 12.9639C16.2198 12.9639 16.9423 13.6592 16.9423 14.5138V15.7694Z" fill="#3D3D3D"/>
</svg>
